<mxfile host="app.diagrams.net" agent="Mozilla/5.0 (Windows NT 10.0; Win64; x64) AppleWebKit/537.36 (KHTML, like Gecko) Chrome/140.0.0.0 Safari/537.36 Edg/140.0.0.0" version="28.2.4">
  <diagram name="Page-1" id="UbCqh7UL2DZpVY0L926Q">
    <mxGraphModel dx="2421" dy="1313" grid="1" gridSize="10" guides="1" tooltips="1" connect="1" arrows="1" fold="1" page="1" pageScale="1" pageWidth="1100" pageHeight="850" math="0" shadow="0">
      <root>
        <mxCell id="0" />
        <mxCell id="1" parent="0" />
        <mxCell id="wRjO68KGIwPwPT-3D-If-8" value="Event Bus" style="sketch=0;points=[[0,0,0],[0.25,0,0],[0.5,0,0],[0.75,0,0],[1,0,0],[0,1,0],[0.25,1,0],[0.5,1,0],[0.75,1,0],[1,1,0],[0,0.25,0],[0,0.5,0],[0,0.75,0],[1,0.25,0],[1,0.5,0],[1,0.75,0]];outlineConnect=0;fontColor=#232F3E;fillColor=#E7157B;strokeColor=#ffffff;dashed=0;verticalLabelPosition=bottom;verticalAlign=top;align=center;html=1;fontSize=12;fontStyle=0;aspect=fixed;shape=mxgraph.aws4.resourceIcon;resIcon=mxgraph.aws4.eventbridge;" vertex="1" parent="1">
          <mxGeometry x="450" y="111" width="78" height="78" as="geometry" />
        </mxCell>
        <mxCell id="wRjO68KGIwPwPT-3D-If-27" style="edgeStyle=orthogonalEdgeStyle;rounded=0;orthogonalLoop=1;jettySize=auto;html=1;exitX=1;exitY=0.5;exitDx=0;exitDy=0;entryX=0;entryY=0.5;entryDx=0;entryDy=0;" edge="1" parent="1" source="wRjO68KGIwPwPT-3D-If-9" target="wRjO68KGIwPwPT-3D-If-23">
          <mxGeometry relative="1" as="geometry" />
        </mxCell>
        <mxCell id="wRjO68KGIwPwPT-3D-If-28" value="Letter Routing" style="edgeLabel;html=1;align=center;verticalAlign=middle;resizable=0;points=[];" vertex="1" connectable="0" parent="wRjO68KGIwPwPT-3D-If-27">
          <mxGeometry x="-0.0769" relative="1" as="geometry">
            <mxPoint y="-9" as="offset" />
          </mxGeometry>
        </mxCell>
        <mxCell id="wRjO68KGIwPwPT-3D-If-9" value="Letter Generation" style="rounded=0;whiteSpace=wrap;html=1;" vertex="1" parent="1">
          <mxGeometry x="40" y="109" width="80" height="80" as="geometry" />
        </mxCell>
        <mxCell id="wRjO68KGIwPwPT-3D-If-17" style="edgeStyle=orthogonalEdgeStyle;rounded=0;orthogonalLoop=1;jettySize=auto;html=1;exitX=1;exitY=0.5;exitDx=0;exitDy=0;exitPerimeter=0;entryX=0;entryY=0.5;entryDx=0;entryDy=0;entryPerimeter=0;" edge="1" parent="1" source="wRjO68KGIwPwPT-3D-If-8" target="wRjO68KGIwPwPT-3D-If-12">
          <mxGeometry relative="1" as="geometry" />
        </mxCell>
        <mxCell id="wRjO68KGIwPwPT-3D-If-18" value="Letter Event" style="edgeLabel;html=1;align=center;verticalAlign=middle;resizable=0;points=[];" vertex="1" connectable="0" parent="wRjO68KGIwPwPT-3D-If-17">
          <mxGeometry x="-0.2958" y="1" relative="1" as="geometry">
            <mxPoint x="-8" y="-8" as="offset" />
          </mxGeometry>
        </mxCell>
        <mxCell id="wRjO68KGIwPwPT-3D-If-20" value="Notify Core" style="points=[[0,0],[0.25,0],[0.5,0],[0.75,0],[1,0],[1,0.25],[1,0.5],[1,0.75],[1,1],[0.75,1],[0.5,1],[0.25,1],[0,1],[0,0.75],[0,0.5],[0,0.25]];outlineConnect=0;gradientColor=none;html=1;whiteSpace=wrap;fontSize=12;fontStyle=0;container=1;pointerEvents=0;collapsible=0;recursiveResize=0;shape=mxgraph.aws4.group;grIcon=mxgraph.aws4.group_aws_cloud;strokeColor=#232F3E;fillColor=none;verticalAlign=top;align=left;spacingLeft=30;fontColor=#232F3E;dashed=0;" vertex="1" parent="1">
          <mxGeometry x="20" y="60" width="340" height="300" as="geometry" />
        </mxCell>
        <mxCell id="wRjO68KGIwPwPT-3D-If-23" value="Letter Distribution" style="rounded=0;whiteSpace=wrap;html=1;" vertex="1" parent="wRjO68KGIwPwPT-3D-If-20">
          <mxGeometry x="178" y="49" width="80" height="80" as="geometry" />
        </mxCell>
        <mxCell id="wRjO68KGIwPwPT-3D-If-24" value="Letter PDF Store" style="sketch=0;points=[[0,0,0],[0.25,0,0],[0.5,0,0],[0.75,0,0],[1,0,0],[0,1,0],[0.25,1,0],[0.5,1,0],[0.75,1,0],[1,1,0],[0,0.25,0],[0,0.5,0],[0,0.75,0],[1,0.25,0],[1,0.5,0],[1,0.75,0]];outlineConnect=0;fontColor=#232F3E;fillColor=#7AA116;strokeColor=#ffffff;dashed=0;verticalLabelPosition=bottom;verticalAlign=top;align=center;html=1;fontSize=12;fontStyle=0;aspect=fixed;shape=mxgraph.aws4.resourceIcon;resIcon=mxgraph.aws4.s3;" vertex="1" parent="wRjO68KGIwPwPT-3D-If-20">
          <mxGeometry x="180" y="160" width="78" height="78" as="geometry" />
        </mxCell>
        <mxCell id="wRjO68KGIwPwPT-3D-If-22" value="Supplier API" style="points=[[0,0],[0.25,0],[0.5,0],[0.75,0],[1,0],[1,0.25],[1,0.5],[1,0.75],[1,1],[0.75,1],[0.5,1],[0.25,1],[0,1],[0,0.75],[0,0.5],[0,0.25]];outlineConnect=0;gradientColor=none;html=1;whiteSpace=wrap;fontSize=12;fontStyle=0;container=1;pointerEvents=0;collapsible=0;recursiveResize=0;shape=mxgraph.aws4.group;grIcon=mxgraph.aws4.group_aws_cloud;strokeColor=#232F3E;fillColor=none;verticalAlign=top;align=left;spacingLeft=30;fontColor=#232F3E;dashed=0;" vertex="1" parent="1">
          <mxGeometry x="620" y="60" width="740" height="940" as="geometry" />
        </mxCell>
        <mxCell id="wRjO68KGIwPwPT-3D-If-12" value="Inbound Letters Queue" style="sketch=0;points=[[0,0,0],[0.25,0,0],[0.5,0,0],[0.75,0,0],[1,0,0],[0,1,0],[0.25,1,0],[0.5,1,0],[0.75,1,0],[1,1,0],[0,0.25,0],[0,0.5,0],[0,0.75,0],[1,0.25,0],[1,0.5,0],[1,0.75,0]];outlineConnect=0;fontColor=#232F3E;fillColor=#E7157B;strokeColor=#ffffff;dashed=0;verticalLabelPosition=bottom;verticalAlign=top;align=center;html=1;fontSize=12;fontStyle=0;aspect=fixed;shape=mxgraph.aws4.resourceIcon;resIcon=mxgraph.aws4.sqs;" vertex="1" parent="wRjO68KGIwPwPT-3D-If-22">
          <mxGeometry x="70" y="51" width="78" height="78" as="geometry" />
        </mxCell>
        <mxCell id="wRjO68KGIwPwPT-3D-If-14" value="Inbound Letters Consumer" style="sketch=0;points=[[0,0,0],[0.25,0,0],[0.5,0,0],[0.75,0,0],[1,0,0],[0,1,0],[0.25,1,0],[0.5,1,0],[0.75,1,0],[1,1,0],[0,0.25,0],[0,0.5,0],[0,0.75,0],[1,0.25,0],[1,0.5,0],[1,0.75,0]];outlineConnect=0;fontColor=#232F3E;fillColor=#ED7100;strokeColor=#ffffff;dashed=0;verticalLabelPosition=bottom;verticalAlign=top;align=center;html=1;fontSize=12;fontStyle=0;aspect=fixed;shape=mxgraph.aws4.resourceIcon;resIcon=mxgraph.aws4.lambda;" vertex="1" parent="wRjO68KGIwPwPT-3D-If-22">
          <mxGeometry x="220" y="51" width="78" height="78" as="geometry" />
        </mxCell>
        <mxCell id="wRjO68KGIwPwPT-3D-If-19" style="edgeStyle=orthogonalEdgeStyle;rounded=0;orthogonalLoop=1;jettySize=auto;html=1;exitX=1;exitY=0.5;exitDx=0;exitDy=0;exitPerimeter=0;entryX=0;entryY=0.5;entryDx=0;entryDy=0;entryPerimeter=0;" edge="1" parent="wRjO68KGIwPwPT-3D-If-22" source="wRjO68KGIwPwPT-3D-If-12" target="wRjO68KGIwPwPT-3D-If-14">
          <mxGeometry relative="1" as="geometry" />
        </mxCell>
        <mxCell id="wRjO68KGIwPwPT-3D-If-15" value="Letters Table" style="sketch=0;points=[[0,0,0],[0.25,0,0],[0.5,0,0],[0.75,0,0],[1,0,0],[0,1,0],[0.25,1,0],[0.5,1,0],[0.75,1,0],[1,1,0],[0,0.25,0],[0,0.5,0],[0,0.75,0],[1,0.25,0],[1,0.5,0],[1,0.75,0]];outlineConnect=0;fontColor=#232F3E;fillColor=#C925D1;strokeColor=#ffffff;dashed=0;verticalLabelPosition=bottom;verticalAlign=top;align=center;html=1;fontSize=12;fontStyle=0;aspect=fixed;shape=mxgraph.aws4.resourceIcon;resIcon=mxgraph.aws4.dynamodb;" vertex="1" parent="wRjO68KGIwPwPT-3D-If-22">
          <mxGeometry x="370" y="51" width="78" height="78" as="geometry" />
        </mxCell>
        <mxCell id="wRjO68KGIwPwPT-3D-If-32" style="edgeStyle=orthogonalEdgeStyle;rounded=0;orthogonalLoop=1;jettySize=auto;html=1;exitX=1;exitY=0.5;exitDx=0;exitDy=0;exitPerimeter=0;entryX=0;entryY=0.5;entryDx=0;entryDy=0;entryPerimeter=0;" edge="1" parent="wRjO68KGIwPwPT-3D-If-22" source="wRjO68KGIwPwPT-3D-If-14" target="wRjO68KGIwPwPT-3D-If-15">
          <mxGeometry relative="1" as="geometry" />
        </mxCell>
        <mxCell id="wRjO68KGIwPwPT-3D-If-68" value="Insert" style="edgeLabel;html=1;align=center;verticalAlign=middle;resizable=0;points=[];" vertex="1" connectable="0" parent="wRjO68KGIwPwPT-3D-If-32">
          <mxGeometry x="0.0082" y="-4" relative="1" as="geometry">
            <mxPoint x="-4" y="-14" as="offset" />
          </mxGeometry>
        </mxCell>
        <mxCell id="wRjO68KGIwPwPT-3D-If-33" value="Supplier API GW" style="sketch=0;points=[[0,0,0],[0.25,0,0],[0.5,0,0],[0.75,0,0],[1,0,0],[0,1,0],[0.25,1,0],[0.5,1,0],[0.75,1,0],[1,1,0],[0,0.25,0],[0,0.5,0],[0,0.75,0],[1,0.25,0],[1,0.5,0],[1,0.75,0]];outlineConnect=0;fontColor=#232F3E;fillColor=#E7157B;strokeColor=#ffffff;dashed=0;verticalLabelPosition=bottom;verticalAlign=top;align=center;html=1;fontSize=12;fontStyle=0;aspect=fixed;shape=mxgraph.aws4.resourceIcon;resIcon=mxgraph.aws4.api_gateway;" vertex="1" parent="wRjO68KGIwPwPT-3D-If-22">
          <mxGeometry x="640" y="51" width="78" height="78" as="geometry" />
        </mxCell>
        <mxCell id="wRjO68KGIwPwPT-3D-If-35" value="List Letters Handler" style="sketch=0;points=[[0,0,0],[0.25,0,0],[0.5,0,0],[0.75,0,0],[1,0,0],[0,1,0],[0.25,1,0],[0.5,1,0],[0.75,1,0],[1,1,0],[0,0.25,0],[0,0.5,0],[0,0.75,0],[1,0.25,0],[1,0.5,0],[1,0.75,0]];outlineConnect=0;fontColor=#232F3E;fillColor=#ED7100;strokeColor=#ffffff;dashed=0;verticalLabelPosition=bottom;verticalAlign=top;align=center;html=1;fontSize=12;fontStyle=0;aspect=fixed;shape=mxgraph.aws4.resourceIcon;resIcon=mxgraph.aws4.lambda;" vertex="1" parent="wRjO68KGIwPwPT-3D-If-22">
          <mxGeometry x="490" y="51" width="78" height="78" as="geometry" />
        </mxCell>
        <mxCell id="wRjO68KGIwPwPT-3D-If-36" style="edgeStyle=orthogonalEdgeStyle;rounded=0;orthogonalLoop=1;jettySize=auto;html=1;exitX=0;exitY=0.5;exitDx=0;exitDy=0;exitPerimeter=0;entryX=1;entryY=0.5;entryDx=0;entryDy=0;entryPerimeter=0;" edge="1" parent="wRjO68KGIwPwPT-3D-If-22" source="wRjO68KGIwPwPT-3D-If-35" target="wRjO68KGIwPwPT-3D-If-15">
          <mxGeometry relative="1" as="geometry" />
        </mxCell>
        <mxCell id="wRjO68KGIwPwPT-3D-If-37" style="edgeStyle=orthogonalEdgeStyle;rounded=0;orthogonalLoop=1;jettySize=auto;html=1;exitX=0;exitY=0.5;exitDx=0;exitDy=0;exitPerimeter=0;entryX=1;entryY=0.5;entryDx=0;entryDy=0;entryPerimeter=0;" edge="1" parent="wRjO68KGIwPwPT-3D-If-22" source="wRjO68KGIwPwPT-3D-If-33" target="wRjO68KGIwPwPT-3D-If-35">
          <mxGeometry relative="1" as="geometry" />
        </mxCell>
        <mxCell id="wRjO68KGIwPwPT-3D-If-62" style="edgeStyle=orthogonalEdgeStyle;rounded=0;orthogonalLoop=1;jettySize=auto;html=1;exitX=0;exitY=0.5;exitDx=0;exitDy=0;exitPerimeter=0;entryX=0.5;entryY=1;entryDx=0;entryDy=0;entryPerimeter=0;" edge="1" parent="wRjO68KGIwPwPT-3D-If-22" source="wRjO68KGIwPwPT-3D-If-39" target="wRjO68KGIwPwPT-3D-If-15">
          <mxGeometry relative="1" as="geometry">
            <mxPoint x="400" y="130" as="targetPoint" />
          </mxGeometry>
        </mxCell>
        <mxCell id="wRjO68KGIwPwPT-3D-If-39" value="PATCH Letter Handler" style="sketch=0;points=[[0,0,0],[0.25,0,0],[0.5,0,0],[0.75,0,0],[1,0,0],[0,1,0],[0.25,1,0],[0.5,1,0],[0.75,1,0],[1,1,0],[0,0.25,0],[0,0.5,0],[0,0.75,0],[1,0.25,0],[1,0.5,0],[1,0.75,0]];outlineConnect=0;fontColor=#232F3E;fillColor=#ED7100;strokeColor=#ffffff;dashed=0;verticalLabelPosition=bottom;verticalAlign=top;align=center;html=1;fontSize=12;fontStyle=0;aspect=fixed;shape=mxgraph.aws4.resourceIcon;resIcon=mxgraph.aws4.lambda;" vertex="1" parent="wRjO68KGIwPwPT-3D-If-22">
          <mxGeometry x="490" y="270" width="78" height="78" as="geometry" />
        </mxCell>
        <mxCell id="wRjO68KGIwPwPT-3D-If-40" value="POST Letter Handler" style="sketch=0;points=[[0,0,0],[0.25,0,0],[0.5,0,0],[0.75,0,0],[1,0,0],[0,1,0],[0.25,1,0],[0.5,1,0],[0.75,1,0],[1,1,0],[0,0.25,0],[0,0.5,0],[0,0.75,0],[1,0.25,0],[1,0.5,0],[1,0.75,0]];outlineConnect=0;fontColor=#232F3E;fillColor=#ED7100;strokeColor=#ffffff;dashed=0;verticalLabelPosition=bottom;verticalAlign=top;align=center;html=1;fontSize=12;fontStyle=0;aspect=fixed;shape=mxgraph.aws4.resourceIcon;resIcon=mxgraph.aws4.lambda;" vertex="1" parent="wRjO68KGIwPwPT-3D-If-22">
          <mxGeometry x="490" y="380" width="78" height="78" as="geometry" />
        </mxCell>
        <mxCell id="wRjO68KGIwPwPT-3D-If-41" value="GET Letter Handler" style="sketch=0;points=[[0,0,0],[0.25,0,0],[0.5,0,0],[0.75,0,0],[1,0,0],[0,1,0],[0.25,1,0],[0.5,1,0],[0.75,1,0],[1,1,0],[0,0.25,0],[0,0.5,0],[0,0.75,0],[1,0.25,0],[1,0.5,0],[1,0.75,0]];outlineConnect=0;fontColor=#232F3E;fillColor=#ED7100;strokeColor=#ffffff;dashed=0;verticalLabelPosition=bottom;verticalAlign=top;align=center;html=1;fontSize=12;fontStyle=0;aspect=fixed;shape=mxgraph.aws4.resourceIcon;resIcon=mxgraph.aws4.lambda;" vertex="1" parent="wRjO68KGIwPwPT-3D-If-22">
          <mxGeometry x="490" y="160" width="78" height="78" as="geometry" />
        </mxCell>
        <mxCell id="wRjO68KGIwPwPT-3D-If-42" value="GET letter data" style="sketch=0;points=[[0,0,0],[0.25,0,0],[0.5,0,0],[0.75,0,0],[1,0,0],[0,1,0],[0.25,1,0],[0.5,1,0],[0.75,1,0],[1,1,0],[0,0.25,0],[0,0.5,0],[0,0.75,0],[1,0.25,0],[1,0.5,0],[1,0.75,0]];outlineConnect=0;fontColor=#232F3E;fillColor=#ED7100;strokeColor=#ffffff;dashed=0;verticalLabelPosition=bottom;verticalAlign=top;align=center;html=1;fontSize=12;fontStyle=0;aspect=fixed;shape=mxgraph.aws4.resourceIcon;resIcon=mxgraph.aws4.lambda;" vertex="1" parent="wRjO68KGIwPwPT-3D-If-22">
          <mxGeometry x="490" y="490" width="78" height="78" as="geometry" />
        </mxCell>
        <mxCell id="wRjO68KGIwPwPT-3D-If-43" value="PUT MI Data" style="sketch=0;points=[[0,0,0],[0.25,0,0],[0.5,0,0],[0.75,0,0],[1,0,0],[0,1,0],[0.25,1,0],[0.5,1,0],[0.75,1,0],[1,1,0],[0,0.25,0],[0,0.5,0],[0,0.75,0],[1,0.25,0],[1,0.5,0],[1,0.75,0]];outlineConnect=0;fontColor=#232F3E;fillColor=#ED7100;strokeColor=#ffffff;dashed=0;verticalLabelPosition=bottom;verticalAlign=top;align=center;html=1;fontSize=12;fontStyle=0;aspect=fixed;shape=mxgraph.aws4.resourceIcon;resIcon=mxgraph.aws4.lambda;" vertex="1" parent="wRjO68KGIwPwPT-3D-If-22">
          <mxGeometry x="490" y="710" width="78" height="78" as="geometry" />
        </mxCell>
        <mxCell id="wRjO68KGIwPwPT-3D-If-44" value="GET MI Data" style="sketch=0;points=[[0,0,0],[0.25,0,0],[0.5,0,0],[0.75,0,0],[1,0,0],[0,1,0],[0.25,1,0],[0.5,1,0],[0.75,1,0],[1,1,0],[0,0.25,0],[0,0.5,0],[0,0.75,0],[1,0.25,0],[1,0.5,0],[1,0.75,0]];outlineConnect=0;fontColor=#232F3E;fillColor=#ED7100;strokeColor=#ffffff;dashed=0;verticalLabelPosition=bottom;verticalAlign=top;align=center;html=1;fontSize=12;fontStyle=0;aspect=fixed;shape=mxgraph.aws4.resourceIcon;resIcon=mxgraph.aws4.lambda;" vertex="1" parent="wRjO68KGIwPwPT-3D-If-22">
          <mxGeometry x="490" y="822" width="78" height="78" as="geometry" />
        </mxCell>
        <mxCell id="wRjO68KGIwPwPT-3D-If-45" value="MI Table" style="sketch=0;points=[[0,0,0],[0.25,0,0],[0.5,0,0],[0.75,0,0],[1,0,0],[0,1,0],[0.25,1,0],[0.5,1,0],[0.75,1,0],[1,1,0],[0,0.25,0],[0,0.5,0],[0,0.75,0],[1,0.25,0],[1,0.5,0],[1,0.75,0]];outlineConnect=0;fontColor=#232F3E;fillColor=#C925D1;strokeColor=#ffffff;dashed=0;verticalLabelPosition=bottom;verticalAlign=top;align=center;html=1;fontSize=12;fontStyle=0;aspect=fixed;shape=mxgraph.aws4.resourceIcon;resIcon=mxgraph.aws4.dynamodb;" vertex="1" parent="wRjO68KGIwPwPT-3D-If-22">
          <mxGeometry x="370" y="710" width="78" height="78" as="geometry" />
        </mxCell>
        <mxCell id="wRjO68KGIwPwPT-3D-If-52" style="edgeStyle=orthogonalEdgeStyle;rounded=0;orthogonalLoop=1;jettySize=auto;html=1;exitX=0;exitY=0.5;exitDx=0;exitDy=0;exitPerimeter=0;entryX=1;entryY=0.5;entryDx=0;entryDy=0;entryPerimeter=0;" edge="1" parent="wRjO68KGIwPwPT-3D-If-22" source="wRjO68KGIwPwPT-3D-If-33" target="wRjO68KGIwPwPT-3D-If-41">
          <mxGeometry relative="1" as="geometry" />
        </mxCell>
        <mxCell id="wRjO68KGIwPwPT-3D-If-53" style="edgeStyle=orthogonalEdgeStyle;rounded=0;orthogonalLoop=1;jettySize=auto;html=1;exitX=0;exitY=0.5;exitDx=0;exitDy=0;exitPerimeter=0;entryX=1;entryY=0.5;entryDx=0;entryDy=0;entryPerimeter=0;" edge="1" parent="wRjO68KGIwPwPT-3D-If-22" source="wRjO68KGIwPwPT-3D-If-33" target="wRjO68KGIwPwPT-3D-If-39">
          <mxGeometry relative="1" as="geometry" />
        </mxCell>
        <mxCell id="wRjO68KGIwPwPT-3D-If-54" style="edgeStyle=orthogonalEdgeStyle;rounded=0;orthogonalLoop=1;jettySize=auto;html=1;exitX=0;exitY=0.5;exitDx=0;exitDy=0;exitPerimeter=0;entryX=1;entryY=0.5;entryDx=0;entryDy=0;entryPerimeter=0;" edge="1" parent="wRjO68KGIwPwPT-3D-If-22" source="wRjO68KGIwPwPT-3D-If-33" target="wRjO68KGIwPwPT-3D-If-40">
          <mxGeometry relative="1" as="geometry" />
        </mxCell>
        <mxCell id="wRjO68KGIwPwPT-3D-If-55" style="edgeStyle=orthogonalEdgeStyle;rounded=0;orthogonalLoop=1;jettySize=auto;html=1;exitX=0;exitY=0.5;exitDx=0;exitDy=0;exitPerimeter=0;entryX=1;entryY=0.5;entryDx=0;entryDy=0;entryPerimeter=0;" edge="1" parent="wRjO68KGIwPwPT-3D-If-22" source="wRjO68KGIwPwPT-3D-If-33" target="wRjO68KGIwPwPT-3D-If-42">
          <mxGeometry relative="1" as="geometry" />
        </mxCell>
        <mxCell id="wRjO68KGIwPwPT-3D-If-57" style="edgeStyle=orthogonalEdgeStyle;rounded=0;orthogonalLoop=1;jettySize=auto;html=1;exitX=0;exitY=0.5;exitDx=0;exitDy=0;exitPerimeter=0;entryX=1;entryY=0.5;entryDx=0;entryDy=0;entryPerimeter=0;" edge="1" parent="wRjO68KGIwPwPT-3D-If-22" source="wRjO68KGIwPwPT-3D-If-33" target="wRjO68KGIwPwPT-3D-If-43">
          <mxGeometry relative="1" as="geometry" />
        </mxCell>
        <mxCell id="wRjO68KGIwPwPT-3D-If-58" style="edgeStyle=orthogonalEdgeStyle;rounded=0;orthogonalLoop=1;jettySize=auto;html=1;exitX=0;exitY=0.5;exitDx=0;exitDy=0;exitPerimeter=0;entryX=1;entryY=0.5;entryDx=0;entryDy=0;entryPerimeter=0;" edge="1" parent="wRjO68KGIwPwPT-3D-If-22" source="wRjO68KGIwPwPT-3D-If-33" target="wRjO68KGIwPwPT-3D-If-44">
          <mxGeometry relative="1" as="geometry" />
        </mxCell>
        <mxCell id="wRjO68KGIwPwPT-3D-If-59" style="edgeStyle=orthogonalEdgeStyle;rounded=0;orthogonalLoop=1;jettySize=auto;html=1;exitX=0;exitY=0.5;exitDx=0;exitDy=0;exitPerimeter=0;entryX=0.5;entryY=1;entryDx=0;entryDy=0;entryPerimeter=0;" edge="1" parent="wRjO68KGIwPwPT-3D-If-22" source="wRjO68KGIwPwPT-3D-If-44" target="wRjO68KGIwPwPT-3D-If-45">
          <mxGeometry relative="1" as="geometry" />
        </mxCell>
        <mxCell id="wRjO68KGIwPwPT-3D-If-60" style="edgeStyle=orthogonalEdgeStyle;rounded=0;orthogonalLoop=1;jettySize=auto;html=1;exitX=0;exitY=0.5;exitDx=0;exitDy=0;exitPerimeter=0;entryX=1;entryY=0.5;entryDx=0;entryDy=0;entryPerimeter=0;" edge="1" parent="wRjO68KGIwPwPT-3D-If-22" source="wRjO68KGIwPwPT-3D-If-43" target="wRjO68KGIwPwPT-3D-If-45">
          <mxGeometry relative="1" as="geometry" />
        </mxCell>
        <mxCell id="wRjO68KGIwPwPT-3D-If-61" style="edgeStyle=orthogonalEdgeStyle;rounded=0;orthogonalLoop=1;jettySize=auto;html=1;exitX=0;exitY=0.5;exitDx=0;exitDy=0;exitPerimeter=0;entryX=0.5;entryY=1;entryDx=0;entryDy=0;entryPerimeter=0;" edge="1" parent="wRjO68KGIwPwPT-3D-If-22" source="wRjO68KGIwPwPT-3D-If-41" target="wRjO68KGIwPwPT-3D-If-15">
          <mxGeometry relative="1" as="geometry" />
        </mxCell>
        <mxCell id="wRjO68KGIwPwPT-3D-If-63" style="edgeStyle=orthogonalEdgeStyle;rounded=0;orthogonalLoop=1;jettySize=auto;html=1;exitX=0;exitY=0.5;exitDx=0;exitDy=0;exitPerimeter=0;entryX=0.5;entryY=1;entryDx=0;entryDy=0;entryPerimeter=0;" edge="1" parent="wRjO68KGIwPwPT-3D-If-22" source="wRjO68KGIwPwPT-3D-If-40" target="wRjO68KGIwPwPT-3D-If-15">
          <mxGeometry relative="1" as="geometry" />
        </mxCell>
        <mxCell id="wRjO68KGIwPwPT-3D-If-65" style="edgeStyle=orthogonalEdgeStyle;rounded=0;orthogonalLoop=1;jettySize=auto;html=1;exitX=0;exitY=0.25;exitDx=0;exitDy=0;exitPerimeter=0;entryX=0.5;entryY=1;entryDx=0;entryDy=0;entryPerimeter=0;" edge="1" parent="wRjO68KGIwPwPT-3D-If-22" source="wRjO68KGIwPwPT-3D-If-42" target="wRjO68KGIwPwPT-3D-If-15">
          <mxGeometry relative="1" as="geometry" />
        </mxCell>
        <mxCell id="wRjO68KGIwPwPT-3D-If-25" style="edgeStyle=orthogonalEdgeStyle;rounded=0;orthogonalLoop=1;jettySize=auto;html=1;exitX=0.5;exitY=1;exitDx=0;exitDy=0;entryX=0;entryY=0.5;entryDx=0;entryDy=0;entryPerimeter=0;" edge="1" parent="1" source="wRjO68KGIwPwPT-3D-If-9" target="wRjO68KGIwPwPT-3D-If-24">
          <mxGeometry relative="1" as="geometry" />
        </mxCell>
        <mxCell id="wRjO68KGIwPwPT-3D-If-26" value="Generate PDF" style="edgeLabel;html=1;align=center;verticalAlign=middle;resizable=0;points=[];" vertex="1" connectable="0" parent="wRjO68KGIwPwPT-3D-If-25">
          <mxGeometry x="0.0842" y="2" relative="1" as="geometry">
            <mxPoint x="17" y="-17" as="offset" />
          </mxGeometry>
        </mxCell>
        <mxCell id="wRjO68KGIwPwPT-3D-If-29" style="edgeStyle=orthogonalEdgeStyle;rounded=0;orthogonalLoop=1;jettySize=auto;html=1;exitX=1;exitY=0.5;exitDx=0;exitDy=0;entryX=0;entryY=0.5;entryDx=0;entryDy=0;entryPerimeter=0;" edge="1" parent="1" source="wRjO68KGIwPwPT-3D-If-23" target="wRjO68KGIwPwPT-3D-If-8">
          <mxGeometry relative="1" as="geometry" />
        </mxCell>
        <mxCell id="wRjO68KGIwPwPT-3D-If-30" value="Letter Allocated to Supplier" style="edgeLabel;html=1;align=center;verticalAlign=middle;resizable=0;points=[];" vertex="1" connectable="0" parent="wRjO68KGIwPwPT-3D-If-29">
          <mxGeometry x="0.0769" y="-2" relative="1" as="geometry">
            <mxPoint y="-10" as="offset" />
          </mxGeometry>
        </mxCell>
        <mxCell id="wRjO68KGIwPwPT-3D-If-50" style="edgeStyle=orthogonalEdgeStyle;rounded=0;orthogonalLoop=1;jettySize=auto;html=1;exitX=0;exitY=0.5;exitDx=0;exitDy=0;" edge="1" parent="1" source="wRjO68KGIwPwPT-3D-If-47" target="wRjO68KGIwPwPT-3D-If-33">
          <mxGeometry relative="1" as="geometry" />
        </mxCell>
        <mxCell id="wRjO68KGIwPwPT-3D-If-51" value="Proxy Request" style="edgeLabel;html=1;align=center;verticalAlign=middle;resizable=0;points=[];" vertex="1" connectable="0" parent="wRjO68KGIwPwPT-3D-If-50">
          <mxGeometry x="0.0971" y="-1" relative="1" as="geometry">
            <mxPoint y="-9" as="offset" />
          </mxGeometry>
        </mxCell>
        <mxCell id="wRjO68KGIwPwPT-3D-If-47" value="APIM" style="editableCssRules=.*;html=1;shape=image;verticalLabelPosition=bottom;labelBackgroundColor=#ffffff;verticalAlign=top;aspect=fixed;imageAspect=0;image=data:image/svg+xml,PHN2ZyB4bWxucz0iaHR0cDovL3d3dy53My5vcmcvMjAwMC9zdmciIHhtbG5zOnY9Imh0dHBzOi8vdmVjdGEuaW8vbmFubyIgd2lkdGg9IjIwLjE4MDIzMTA5NDM2MDM1IiBoZWlnaHQ9IjIwLjE4MDIwODIwNjE3Njc1OCIgdmlld0JveD0iLTAuMDAwMTE1MTY1MTIzMTMzOTIwMTMgLTAuMDAwMTAzMzQ0NDkzMjU0NTUzNTMgMjAuMTgwMjMxMDk0MzYwMzUgMjAuMTgwMjA4MjA2MTc2NzU4Ij4mI3hhOwk8c3R5bGUgdHlwZT0idGV4dC9jc3MiPiYjeGE7CS5zdDB7ZmlsbDojNjY5ZGY2O2ZpbGwtcnVsZTpldmVub2RkfSYjeGE7CS5zdDF7ZmlsbC1ydWxlOmV2ZW5vZGQ7ZmlsbDojNDI4NWY0fSYjeGE7CTwvc3R5bGU+JiN4YTsJPHBhdGggY2xhc3M9InN0MCIgZD0iTTMuMjkgMTAuMDlsMS4zMi0xLjMyLTEuNzktMS43OWEyLjk0IDIuOTQgMCAwIDEgMi4wOC01IDIuOTIgMi45MiAwIDAgMSAyLjA3Ljg2bDEuOCAxLjc5IDEuMzItMS4zNEw4LjMgMS41YTQuODEgNC44MSAwIDEgMC02LjggNi44em0xMy42IDBsLTEuMzIgMS4zMiAxLjc5IDEuOGEyLjk0IDIuOTQgMCAwIDEtNC4xNiA0LjE1bC0xLjc5LTEuNzktMS4zMiAxLjMyIDEuNzkgMS43OWE0LjgxIDQuODEgMCAxIDAgNi44LTYuOHoiLz4mI3hhOwk8cGF0aCBjbGFzcz0ic3QxIiBkPSJNNi45OCAxNy4zNmEyLjk0IDIuOTQgMCAxIDEtNC4xNi00LjE2bDEuNzktMS43OSA0LjE2IDQuMTZ6bTYuMjMtMTQuNTRhMi45MyAyLjkzIDAgMCAxIDUgMi4wOCAzIDMgMCAwIDEtLjg2IDIuMDhsLTEuNzkgMS43OS00LjE1LTQuMTZ6bS0zLjEyIDEwLjQ2YTMuMiAzLjIgMCAwIDEtMy4xOS0zLjE5aDBhMy4yMSAzLjIxIDAgMCAxIDMuMTktMy4xOWgwYTMuMjEgMy4yMSAwIDAgMSAzLjE5IDMuMTloMGEzLjIgMy4yIDAgMCAxLTMuMTkgMy4xOXptNi44LTMuMTlsMS43OS0xLjc5QTQuODEgNC44MSAwIDAgMCAxNi41NzQuMTUzIDQuODEgNC44MSAwIDAgMCAxMS44OCAxLjVsLTEuNzkgMS43OS02LjggNi44LTEuNzkgMS43OWE0LjgxIDQuODEgMCAwIDAgMi4xMDYgOC4xNDdBNC44MSA0LjgxIDAgMCAwIDguMyAxOC42OGwxLjc5LTEuNzl6Ii8+JiN4YTs8L3N2Zz4=;labelPosition=center;align=center;" vertex="1" parent="1">
          <mxGeometry x="1480" y="111" width="80" height="80" as="geometry" />
        </mxCell>
        <mxCell id="wRjO68KGIwPwPT-3D-If-49" style="edgeStyle=orthogonalEdgeStyle;rounded=0;orthogonalLoop=1;jettySize=auto;html=1;exitX=0.1;exitY=0.5;exitDx=0;exitDy=0;entryX=1;entryY=0.5;entryDx=0;entryDy=0;exitPerimeter=0;" edge="1" parent="1" source="wRjO68KGIwPwPT-3D-If-48" target="wRjO68KGIwPwPT-3D-If-47">
          <mxGeometry relative="1" as="geometry" />
        </mxCell>
        <mxCell id="wRjO68KGIwPwPT-3D-If-48" value="Supplier" style="shape=actor;whiteSpace=wrap;html=1;labelPosition=center;verticalLabelPosition=bottom;align=center;verticalAlign=top;" vertex="1" parent="1">
          <mxGeometry x="1690" y="114" width="60" height="72" as="geometry" />
        </mxCell>
        <mxCell id="wRjO68KGIwPwPT-3D-If-66" style="edgeStyle=orthogonalEdgeStyle;rounded=0;orthogonalLoop=1;jettySize=auto;html=1;exitX=0;exitY=0.75;exitDx=0;exitDy=0;exitPerimeter=0;entryX=1;entryY=0.5;entryDx=0;entryDy=0;entryPerimeter=0;" edge="1" parent="1" source="wRjO68KGIwPwPT-3D-If-42" target="wRjO68KGIwPwPT-3D-If-24">
          <mxGeometry relative="1" as="geometry">
            <Array as="points">
              <mxPoint x="710" y="609" />
              <mxPoint x="710" y="259" />
            </Array>
          </mxGeometry>
        </mxCell>
        <mxCell id="wRjO68KGIwPwPT-3D-If-67" value="Generate Pre-signed URL" style="edgeLabel;html=1;align=center;verticalAlign=middle;resizable=0;points=[];" vertex="1" connectable="0" parent="wRjO68KGIwPwPT-3D-If-66">
          <mxGeometry x="-0.1571" y="-5" relative="1" as="geometry">
            <mxPoint as="offset" />
          </mxGeometry>
        </mxCell>
      </root>
    </mxGraphModel>
  </diagram>
</mxfile>
